<svg xmlns="http://www.w3.org/2000/svg" viewBox="82 0 200 59.945" width="200" height="60"><g transform="translate(-615 -285.592)"><g transform="translate(615 285.592)"><path id="Trazado_24791" data-name="Trazado 24791" d="M50.623,15.024V30.486a1.077,1.077,0,0,1-1.077,1.077h-7.81a1.077,1.077,0,0,1-1.077-1.077v-15.2c0-4.745-2.423-6.26-4.981-6.26-3.1,0-5.386,2.109-5.386,7.512V30.486a1.077,1.077,0,0,1-1.077,1.077h-7.81a1.077,1.077,0,0,1-1.077-1.077v-15c0-4.744-2.423-6.457-4.914-6.457-2.693,0-5.453,1.318-5.453,6.457v15a1.077,1.077,0,0,1-1.077,1.077H1.077A1.077,1.077,0,0,1,0,30.486V1.867A1.077,1.077,0,0,1,1.077.791h7.81A1.077,1.077,0,0,1,9.963,1.867v.069a1.078,1.078,0,0,0,1.844.755A9.974,9.974,0,0,1,18.445,0a10.624,10.624,0,0,1,9.119,4.459,1.076,1.076,0,0,0,1.734.026A12.523,12.523,0,0,1,38.708,0c7.876,0,11.915,5.6,11.915,15.024" transform="translate(85.03 10.77)" fill="#19171D"></path><path id="Trazado_24792" data-name="Trazado 24792" d="M176.531.791h7.81a1.077,1.077,0,0,1,1.077,1.077V30.486a1.077,1.077,0,0,1-1.077,1.077h-7.81a1.077,1.077,0,0,1-1.077-1.077v-.145a1.076,1.076,0,0,0-1.758-.833,13.069,13.069,0,0,1-8.205,2.845c-8.819,0-15.012-6.524-15.012-16.144,0-9.686,6.193-16.21,15.146-16.21a13.174,13.174,0,0,1,8.085,2.711,1.075,1.075,0,0,0,1.743-.844A1.077,1.077,0,0,1,176.531.791M175.117,16.21a7.178,7.178,0,0,0-7.27-7.182,7.038,7.038,0,0,0-7.2,7.182,7.119,7.119,0,0,0,7.27,7.116,7.234,7.234,0,0,0,7.2-7.116" transform="translate(-11.724 10.77)" fill="#19171D"></path><path id="Trazado_24793" data-name="Trazado 24793" d="M294.06,15.024V30.486a1.077,1.077,0,0,1-1.077,1.077h-7.81a1.077,1.077,0,0,1-1.077-1.077V15.617c0-4.744-2.962-6.59-5.453-6.59-2.693,0-6.059,1.384-6.059,6.524V30.486a1.077,1.077,0,0,1-1.077,1.077H263.7a1.077,1.077,0,0,1-1.077-1.077V1.867A1.077,1.077,0,0,1,263.7.791h7.81a1.077,1.077,0,0,1,1.077,1.077v.416a1.075,1.075,0,0,0,1.84.757A10.881,10.881,0,0,1,281.606,0c8.347,0,12.454,5.6,12.454,15.024" transform="translate(-83.673 10.77)" fill="#19171D"></path><path id="Trazado_24794" data-name="Trazado 24794" d="M395.14,15.024V30.486a1.077,1.077,0,0,1-1.077,1.077h-7.81a1.077,1.077,0,0,1-1.077-1.077V15.617c0-4.744-2.962-6.59-5.453-6.59-2.693,0-6.059,1.384-6.059,6.524V30.486a1.077,1.077,0,0,1-1.077,1.077h-7.81a1.077,1.077,0,0,1-1.077-1.077V1.867A1.077,1.077,0,0,1,364.78.791h7.81a1.077,1.077,0,0,1,1.077,1.077v.416a1.075,1.075,0,0,0,1.84.757A10.88,10.88,0,0,1,382.687,0c8.347,0,12.454,5.6,12.454,15.024" transform="translate(-148.464 10.77)" fill="#19171D"></path><path id="Trazado_24795" data-name="Trazado 24795" d="M477.035,2.24h8.352a1.077,1.077,0,0,1,.992,1.5l-17.286,40.8a1.077,1.077,0,0,1-.992.658h-8.316a1.077,1.077,0,0,1-1-1.486l5.761-13.95a1.077,1.077,0,0,0-.017-.857l-11.5-25.133a1.077,1.077,0,0,1,.979-1.524h8.641a1.077,1.077,0,0,1,1,.669l5.249,12.819a1.077,1.077,0,0,0,2-.007l5.135-12.8a1.077,1.077,0,0,1,1-.676" transform="translate(-205.898 9.321)" fill="#19171D"></path></g></g></svg>