<svg xmlns="http://www.w3.org/2000/svg" viewBox="0 0 127.86 126.3" width="128" height="126"><path fill="#FFFFFF" d="M86.687,125.91.562,52.022a1.611,1.611,0,0,1,.4-2.7L37.8,32.971a19.527,19.527,0,0,1-.113-2.1A19.323,19.323,0,0,1,72.492,19.3q-.489-.656-1.038-1.273l40.3-17.89A1.6,1.6,0,0,1,112.41,0a1.641,1.641,0,0,1,1.249.6,1.576,1.576,0,0,1,.328,1.333L112,11.851a19.587,19.587,0,0,0-3.46-.309,19.236,19.236,0,0,0-6.294,1.049A19.323,19.323,0,1,1,104.4,49.745l-6.08,30.337a18.345,18.345,0,0,1-8.854-2.048,14.17,14.17,0,0,1-5.074-4.728,18.3,18.3,0,0,1-2.348-5.384,21.752,21.752,0,0,1-.673-4.019.813.813,0,0,0-.807-.753h-.011l-7.234.068a.813.813,0,0,0-.807.8v.054a29.031,29.031,0,0,0,1.354,7.453,26.977,26.977,0,0,0,3.972,7.9,22.434,22.434,0,0,0,7.318,6.433,26.383,26.383,0,0,0,11.393,3.047l1.77-8.829H98.4a18.18,18.18,0,0,0,8.834-2.019,13.854,13.854,0,0,0,5.018-4.709,17.955,17.955,0,0,0,2.279-5.373,21.484,21.484,0,0,0,.621-4.013.814.814,0,0,1,.808-.766l7.219-.026h0a.811.811,0,0,1,.812.853,31.879,31.879,0,0,1-1.4,7.673,25.24,25.24,0,0,1-6.058,10.4c-4.513,4.551-10.615,6.858-18.137,6.858-.631,0-1.252-.016-1.847-.048L89.316,125a1.609,1.609,0,0,1-2.629.906ZM60.25,49.92l.028,0Zm.107-.018.049-.009Zm.105-.019.072-.013Zm.109-.02.087-.016Zm.111-.021.1-.019Zm.112-.022.11-.022Zm.112-.023q.234-.048.468-.1C61.218,49.732,61.061,49.766,60.905,49.8Zm.471-.1.109-.026Zm.122-.029.1-.024ZM99.48,47.941a19.183,19.183,0,0,0,4.458,1.7,19.171,19.171,0,0,1-4.458-1.7Zm-37.859,1.7.087-.022Zm.128-.032.068-.017Zm.127-.033.049-.013Zm.133-.035.023-.006Zm4.577-1.883.04-.023Zm.047-.027A19.207,19.207,0,0,0,69.3,45.779,19.41,19.41,0,0,1,66.634,47.627ZM97.743,46.9ZM69.31,45.77l.07-.058Zm26.5-.363q-.658-.577-1.261-1.21h0C94.951,44.62,95.373,45.023,95.811,45.408ZM44.128,30.868A12.882,12.882,0,1,0,57.011,17.985,12.9,12.9,0,0,0,44.128,30.868Zm51.528,0a12.882,12.882,0,1,0,12.882-12.882A12.9,12.9,0,0,0,95.656,30.866Zm-23.8,12.37.037-.044Zm.066-.079a19.219,19.219,0,0,0,2.23-3.363A19.324,19.324,0,0,1,71.921,43.157Zm-29.842-.024,0,0Zm-.068-.083L42,43.035Zm-.069-.085-.022-.028Zm-.068-.084-.053-.068Zm-.067-.085a19.3,19.3,0,0,1-1.56-2.31A19.287,19.287,0,0,0,41.808,42.8Zm48.559-5.343a19.219,19.219,0,0,0,2.189,4.275,19.26,19.26,0,0,1-3.3-9.641A19.253,19.253,0,0,0,90.366,37.453ZM40.247,40.486l-.053-.093Zm-.063-.111-.046-.08Zm-.058-.1c-.013-.025-.027-.049-.041-.074C40.1,40.223,40.113,40.248,40.126,40.272Zm-.057-.1-.037-.067Zm-.057-.1-.028-.053Zm-.057-.106-.02-.036Zm-.054-.1-.008-.015Zm34.266-.094c0-.008.008-.016.012-.023C74.176,39.748,74.171,39.756,74.168,39.764Zm.739-1.6c0-.01.008-.02.012-.03C74.915,38.146,74.911,38.156,74.907,38.166Zm.044-.107a19.157,19.157,0,0,0,1.378-6.81A19.253,19.253,0,0,1,74.95,38.059Zm-37.017-4.1h0Zm-.015-.1c0-.007,0-.014,0-.021S37.917,33.856,37.919,33.862Zm-.016-.1c0-.011,0-.024-.005-.035C37.9,33.737,37.9,33.749,37.9,33.76Zm-.016-.111-.006-.041Zm-.016-.111c0-.015,0-.03-.006-.045C37.867,33.508,37.869,33.524,37.871,33.539Zm-.016-.114-.006-.048Zm-.014-.112c0-.017,0-.034-.007-.052C37.837,33.278,37.839,33.295,37.841,33.312Zm-.014-.118c0-.012,0-.025,0-.037C37.824,33.17,37.825,33.182,37.826,33.195Zm38.5-1.953c0-.033,0-.065,0-.1C76.33,31.177,76.33,31.208,76.329,31.241Zm0-.126c0-.03,0-.06,0-.089C76.332,31.056,76.331,31.085,76.331,31.115Zm0-.124v0Zm0-.124h0v0Zm14.4-7.523a19.207,19.207,0,0,0-1.519,7.4,19.278,19.278,0,0,1,5.1-12.958A19.226,19.226,0,0,0,90.734,23.344Zm-14.4,7.368c0-.027,0-.053,0-.08C76.331,30.658,76.332,30.685,76.332,30.712Zm0-.136c0-.019,0-.039,0-.058C76.33,30.537,76.33,30.556,76.331,30.575Zm0-.127c0-.013,0-.027,0-.04C76.328,30.421,76.328,30.435,76.328,30.448Zm0-.13a.06.06,0,0,0,0-.011A.059.059,0,0,1,76.325,30.318ZM72.572,19.412l-.006-.008Zm-.028-.038-.051-.067Zm22.622-2.457a19.466,19.466,0,0,1,3.731-2.8A19.347,19.347,0,0,0,95.167,16.917Z"></path></svg>